<?xml version="1.0" encoding="utf-8"?>
<!-- Generator: Adobe Illustrator 26.0.1, SVG Export Plug-In . SVG Version: 6.00 Build 0)  -->
<svg version="1.1" id="圖層_1" xmlns="http://www.w3.org/2000/svg" xmlns:xlink="http://www.w3.org/1999/xlink" x="0px" y="0px"
	 viewBox="0 0 21 21" style="enable-background:new 0 0 21 21;" xml:space="preserve">
<style type="text/css">
	.st0{fill:none;stroke:#FFFFFF;stroke-linecap:round;stroke-linejoin:round;}
</style>
<path class="st0" d="M10.5,19.66c5.06,0,9.16-4.1,9.16-9.16c0-5.06-4.1-9.16-9.16-9.16c-5.06,0-9.16,4.1-9.16,9.16
	C1.34,15.56,5.44,19.66,10.5,19.66z"/>
<path class="st0" d="M10.5,1.34v18.31"/>
<path class="st0" d="M19.66,10.5H1.34"/>
<path class="st0" d="M10.5,1.34c0,0-4.97,2.92-4.97,9.16"/>
<path class="st0" d="M10.5,19.66c0,0-4.97-2.92-4.97-9.16"/>
<path class="st0" d="M10.5,1.34c0,0,4.97,2.92,4.97,9.16"/>
<path class="st0" d="M10.5,19.66c0,0,4.97-2.92,4.97-9.16"/>
</svg>
